<?xml version="1.0" encoding="UTF-8" standalone="no"?>
<!-- Created with Inkscape (http://www.inkscape.org/) -->

<svg
   xmlns:dc="http://purl.org/dc/elements/1.1/"
   xmlns:cc="http://creativecommons.org/ns#"
   xmlns:rdf="http://www.w3.org/1999/02/22-rdf-syntax-ns#"
   xmlns:svg="http://www.w3.org/2000/svg"
   xmlns="http://www.w3.org/2000/svg"
   xmlns:sodipodi="http://sodipodi.sourceforge.net/DTD/sodipodi-0.dtd"
   xmlns:inkscape="http://www.inkscape.org/namespaces/inkscape"
   width="1000"
   height="1000"
   viewBox="0 0 264.58333 264.58334"
   version="1.1"
   id="svg8"
   inkscape:version="0.92.4 (5da689c313, 2019-01-14)"
   sodipodi:docname="academy.svg">
  <defs
     id="defs2" />
  <sodipodi:namedview
     id="base"
     pagecolor="#ffffff"
     bordercolor="#666666"
     borderopacity="1.0"
     inkscape:pageopacity="0.0"
     inkscape:pageshadow="2"
     inkscape:zoom="0.49497475"
     inkscape:cx="108.73959"
     inkscape:cy="524.58674"
     inkscape:document-units="mm"
     inkscape:current-layer="layer1"
     showgrid="false"
     units="px"
     inkscape:window-width="1920"
     inkscape:window-height="1001"
     inkscape:window-x="-9"
     inkscape:window-y="-9"
     inkscape:window-maximized="1" />
  <metadata
     id="metadata5">
    <rdf:RDF>
      <cc:Work
         rdf:about="">
        <dc:format>image/svg+xml</dc:format>
        <dc:type
           rdf:resource="http://purl.org/dc/dcmitype/StillImage" />
        <dc:title></dc:title>
      </cc:Work>
    </rdf:RDF>
  </metadata>
  <g
     inkscape:label="Capa 1"
     inkscape:groupmode="layer"
     id="layer1"
     transform="translate(0,-32.41665)">
    <path
       style="fill:#6f79ea;fill-opacity:1;stroke-width:0.5114094"
       d="m 19.578778,270.24258 c -0.12441,-0.2109 0.527331,-2.10957 1.448322,-4.21911 0.920991,-2.10957 3.91401,-9.12867 6.65115,-15.59799 2.73714,-6.46935 6.302217,-14.86923 7.922394,-18.66645 1.620174,-3.79722 4.150254,-9.78072 5.622399,-13.29666 1.472145,-3.51594 3.225234,-7.60764 3.895749,-9.09267 0.670518,-1.48503 1.219122,-2.80254 1.219122,-2.92779 0,-0.1254 0.690402,-1.73514 1.534227,-3.5775 0.843825,-1.84239 1.53423,-3.45228 1.53423,-3.57753 0,-0.1251 0.548604,-1.44276 1.219116,-2.92779 0.670521,-1.48503 2.423694,-5.57673 3.895938,-9.09267 1.47225,-3.51594 3.080589,-7.31316 3.574086,-8.43825 0.4935,-1.12512 3.440433,-8.02914 6.548736,-15.3423 5.53506,-13.02273 13.75025,-32.33454 28.00929,-65.842585 5.48409,-12.88734 7.33293,-16.74762 8.021633,-16.74867 0.49223,-5.1e-4 0.89465,0.2862 0.89427,0.63792 -3.8e-4,0.35157 3.70912,9.95967 8.24333,21.351325 4.53421,11.39163 9.35117,23.52021 10.70434,26.95239 l 2.46033,6.2403 -15.31206,38.25231 c -8.421633,21.03879 -15.654693,38.9775 -16.073453,39.86382 -0.41877,0.88635 -0.76139,1.7721 -0.76139,1.96836 0,0.1962 -0.32905,1.08201 -0.73121,1.96836 -0.40216,0.88632 -5.14416,12.65796 -10.53776,26.15916 -5.3936,13.5012 -10.02054,24.95037 -10.28209,25.44261 -0.44276,0.83328 -2.16428,0.89496 -24.975014,0.89496 -13.47471,0 -24.601269,-0.1725 -24.725685,-0.38355 z m 178.179782,-0.7671 c -0.2433,-0.63288 -4.51851,-11.33412 -9.50016,-23.78055 l -9.05754,-22.62987 h -34.21267 c -33.8636,0 -34.21269,-0.009 -34.21269,-1.02207 0,-1.0713 13.60156,-35.5851 14.46088,-36.69435 0.3803,-0.49092 4.8722,-0.63927 19.35476,-0.63927 10.40038,0 18.85954,-0.2001 18.85954,-0.4464 0,-0.2454 -11.71236,-29.68881 -26.02745,-65.42958 -14.3151,-35.740765 -25.89852,-65.112145 -25.74095,-65.269735 0.15759,-0.1575 10.13718,-0.2865 22.17689,-0.2865 h 21.89039 l 1.29351,2.82792 c 0.71142,1.55535 1.29351,2.93037 1.29351,3.05565 0,0.1251 0.69039,1.73514 1.53423,3.5775 0.84381,1.84239 1.53423,3.46158 1.53423,3.59826 0,0.1365 0.48705,1.33908 1.08231,2.6721 0.59529,1.33299 1.40076,3.17154 1.78995,4.0857 0.38916,0.91413 1.02603,2.40999 1.41519,3.32415 0.38919,0.91413 1.19466,2.75271 1.78995,4.0857 0.59529,1.33299 1.08231,2.53437 1.08231,2.66976 0,0.1353 0.54708,1.46112 1.21575,2.94615 0.66864,1.48503 3.11331,7.18767 5.43258,12.67254 2.31927,5.484865 4.76394,11.187505 5.43261,12.672535 0.66864,1.48503 1.21572,2.81082 1.21572,2.94618 0,0.1353 0.46026,1.27923 1.02282,2.5419 0.56256,1.26267 1.48308,3.32886 2.04564,4.59153 0.56256,1.26267 1.02282,2.40654 1.02282,2.5419 0,0.1353 0.54708,1.46115 1.21572,2.94618 0.66864,1.48503 3.11508,7.18767 5.43654,12.67254 2.32143,5.48487 6.81333,16.07103 9.98199,23.52483 3.16866,7.4538 7.65396,18.03996 9.96735,23.52483 2.31336,5.48487 4.60998,10.893 5.1036,12.01812 0.49362,1.12509 2.79594,6.53325 5.11626,12.01812 2.32035,5.48487 4.63836,10.91157 5.15118,12.05931 0.51279,1.14777 1.41666,3.31551 2.00856,4.81719 0.5919,1.50168 1.4973,3.66942 2.01198,4.81719 0.51465,1.14777 2.14032,4.96353 3.61257,8.47947 1.47225,3.51594 3.22542,7.60764 3.89592,9.09267 0.67053,1.48503 1.21914,2.80254 1.21914,2.92779 0,0.1251 0.69039,1.73514 1.53423,3.5775 0.84381,1.84239 1.53423,3.45228 1.53423,3.57753 0,0.1254 0.55191,1.44276 1.22649,2.92779 1.80978,3.98403 2.86476,6.60222 2.86476,7.10949 0,0.2514 -10.91442,0.44895 -24.816,0.44895 h -24.81603 z"
       id="path3728"
       inkscape:connector-curvature="0" />
    <path
       style="fill:#000000;stroke-width:0.17046981"
       d=""
       id="path3726"
       inkscape:connector-curvature="0" />
    <path
       style="fill:#000000;stroke-width:0.17046981"
       d=""
       id="path3724"
       inkscape:connector-curvature="0" />
  </g>
</svg>
